<?xml version="1.0" encoding="utf-8"?>
<svg version="1.1" xmlns:xlink="http://www.w3.org/1999/xlink" width="53px" height="18px" xmlns="http://www.w3.org/2000/svg">
  <defs>
    <mask fill="white" id="clip2">
      <path d="M 0 13  L 0 5  C 0 2.1999999999999993  2.3795918367346816 0  5.408163265306123 0  L 47.59183673469388 0  C 50.62040816326532 0  53 2.1999999999999993  53 5  L 53 13  C 53 15.8  50.62040816326532 18  47.59183673469388 18  L 20.551020408163264 18  L 5.408163265306123 18  C 2.3795918367346816 18  0 15.8  0 13  Z " fill-rule="evenodd" />
    </mask>
  </defs>
  <g transform="matrix(1 0 0 1 -300 -42 )">
    <path d="M 0 13  L 0 5  C 0 2.1999999999999993  2.3795918367346816 0  5.408163265306123 0  L 47.59183673469388 0  C 50.62040816326532 0  53 2.1999999999999993  53 5  L 53 13  C 53 15.8  50.62040816326532 18  47.59183673469388 18  L 20.551020408163264 18  L 5.408163265306123 18  C 2.3795918367346816 18  0 15.8  0 13  Z " fill-rule="nonzero" fill="#ffffff" stroke="none" transform="matrix(1 0 0 1 300 42 )" />
    <path d="M 0 13  L 0 5  C 0 2.1999999999999993  2.3795918367346816 0  5.408163265306123 0  L 47.59183673469388 0  C 50.62040816326532 0  53 2.1999999999999993  53 5  L 53 13  C 53 15.8  50.62040816326532 18  47.59183673469388 18  L 20.551020408163264 18  L 5.408163265306123 18  C 2.3795918367346816 18  0 15.8  0 13  Z " stroke-width="2" stroke="#797979" fill="none" transform="matrix(1 0 0 1 300 42 )" mask="url(#clip2)" />
  </g>
</svg>