<?xml version="1.0" encoding="utf-8"?>
<svg version="1.1" xmlns:xlink="http://www.w3.org/1999/xlink" width="163px" height="132px" xmlns="http://www.w3.org/2000/svg">
  <g transform="matrix(1 0 0 1 -9 -58 )">
    <path d="M 9 58  L 172 58  L 172 190  L 9 190  L 9 58  " fill-rule="nonzero" fill="#cccccc" stroke="none" />
    <path d="M 18 67  L 163 67  L 163 181  L 18 181  L 18 67  " fill-rule="nonzero" fill="#ffffff" stroke="none" />
    <path d="M 103.66 97.6  C 98.116 97.6  93.76 93.244  93.76 87.69999999999999  C 93.76 82.15599999999999  98.116 77.8  103.66 77.8  C 109.20400000000001 77.8  113.56 82.15599999999999  113.56 87.69999999999999  C 113.56 93.244  109.20400000000001 97.6  103.66 97.6  " fill-rule="nonzero" fill="#cccccc" stroke="none" />
    <path d="M 22 178  L 22 119.15  L 56.5 92.39999999999999  L 104.8 126.00981595092024  L 132.4 108.45  L 160 126.00981595092024  L 160 178  L 22 178  " fill-rule="nonzero" fill="#169bd5" stroke="none" />
  </g>
</svg>